<?xml version="1.0" encoding="UTF-8" standalone="no"?>
<!-- Created with Inkscape (http://www.inkscape.org/) -->
<svg xmlns:dc="http://purl.org/dc/elements/1.1/" xmlns:cc="http://web.resource.org/cc/" xmlns:rdf="http://www.w3.org/1999/02/22-rdf-syntax-ns#" xmlns:svg="http://www.w3.org/2000/svg" xmlns="http://www.w3.org/2000/svg" xmlns:sodipodi="http://sodipodi.sourceforge.net/DTD/sodipodi-0.dtd" xmlns:inkscape="http://www.inkscape.org/namespaces/inkscape" width="646.58539" height="295.33203" id="svg2645" sodipodi:version="0.32" inkscape:version="0.45.1" version="1.0" sodipodi:docbase="C:\Users\Francisco\Documents\matematicas\Juegos y Otros recursos" sodipodi:docname="estrellas.svg" inkscape:output_extension="org.inkscape.output.svg.inkscape">
  <defs id="defs2647"/>
  <sodipodi:namedview id="base" pagecolor="#ffffff" bordercolor="#666666" borderopacity="1.0" inkscape:pageopacity="0.0" inkscape:pageshadow="2" inkscape:zoom="0.98994949" inkscape:cx="314.95395" inkscape:cy="115.93898" inkscape:document-units="px" inkscape:current-layer="layer1" inkscape:window-width="842" inkscape:window-height="575" inkscape:window-x="46" inkscape:window-y="46"/>
  <metadata id="metadata2650">
    <rdf:RDF>
      <cc:Work rdf:about="">
        <dc:format>image/svg+xml</dc:format>
        <dc:type rdf:resource="http://purl.org/dc/dcmitype/StillImage"/>
      </cc:Work>
    </rdf:RDF>
  </metadata>
  <g inkscape:label="Capa 1" inkscape:groupmode="layer" id="layer1" transform="translate(-63.860062,-350.30616)">
    <path sodipodi:type="star" style="opacity:1;color:#000000;fill:#0000ff;fill-opacity:1;fill-rule:nonzero;stroke:none;stroke-width:0.99699998;stroke-linecap:butt;stroke-linejoin:miter;marker:none;marker-start:none;marker-mid:none;marker-end:none;stroke-miterlimit:4;stroke-dasharray:none;stroke-dashoffset:0;stroke-opacity:1;visibility:visible;display:inline;overflow:visible;enable-background:accumulate" id="path2653" sodipodi:sides="3" sodipodi:cx="101.01525" sodipodi:cy="453.34171" sodipodi:r1="51.20985" sodipodi:r2="25.604925" sodipodi:arg1="0.25933174" sodipodi:arg2="1.3065293" inkscape:flatsided="false" inkscape:rounded="0" inkscape:randomized="0" d="M 150.51272,466.47369 L 107.7033,478.05774 L 64.893884,489.64178 L 76.266515,446.77571 L 87.639145,403.90965 L 119.07593,435.19167 L 150.51272,466.47369 z " transform="matrix(0.8350428,0,0,0.8350428,18.767246,71.678578)"/>
    <path sodipodi:type="star" style="opacity:1;color:#000000;fill:#ff0000;fill-opacity:1;fill-rule:nonzero;stroke:none;stroke-width:0.99699998;stroke-linecap:butt;stroke-linejoin:miter;marker:none;marker-start:none;marker-mid:none;marker-end:none;stroke-miterlimit:4;stroke-dasharray:none;stroke-dashoffset:0;stroke-opacity:1;visibility:visible;display:inline;overflow:visible;enable-background:accumulate" id="path2655" sodipodi:sides="4" sodipodi:cx="217.1828" sodipodi:cy="429.09805" sodipodi:r1="52.527931" sodipodi:r2="26.263966" sodipodi:arg1="1.1760052" sodipodi:arg2="1.9614034" inkscape:flatsided="false" inkscape:rounded="0" inkscape:randomized="0" d="M 237.38585,477.58537 L 207.1828,453.38377 L 168.69548,449.3011 L 192.89709,419.09805 L 196.97975,380.61073 L 227.1828,404.81234 L 265.67012,408.895 L 241.46851,439.09805 L 237.38585,477.58537 z " transform="translate(16.162441,-30.304576)"/>
    <path sodipodi:type="star" style="opacity:1;color:#000000;fill:#00ff00;fill-opacity:1;fill-rule:nonzero;stroke:none;stroke-width:0.99699998;stroke-linecap:butt;stroke-linejoin:miter;marker:none;marker-start:none;marker-mid:none;marker-end:none;stroke-miterlimit:4;stroke-dasharray:none;stroke-dashoffset:0;stroke-opacity:1;visibility:visible;display:inline;overflow:visible;enable-background:accumulate" id="path2657" sodipodi:sides="5" sodipodi:cx="339.41125" sodipodi:cy="439.19958" sodipodi:r1="53.576191" sodipodi:r2="26.788095" sodipodi:arg1="0.77206562" sodipodi:arg2="1.4003842" inkscape:flatsided="false" inkscape:rounded="0" inkscape:randomized="0" d="M 377.79705,476.57523 L 343.95421,465.59965 L 315.72677,487.25636 L 315.70715,451.67826 L 286.38764,431.52466 L 320.21836,420.51176 L 330.32535,386.39945 L 351.2535,415.1712 L 386.81947,414.24223 L 365.92306,443.03705 L 377.79705,476.57523 z " transform="translate(-1.0101525,32.324881)"/>
    <path sodipodi:type="star" style="opacity:1;color:#000000;fill:#ffff00;fill-opacity:1;fill-rule:nonzero;stroke:none;stroke-width:0.99699998;stroke-linecap:butt;stroke-linejoin:miter;marker:none;marker-start:none;marker-mid:none;marker-end:none;stroke-miterlimit:4;stroke-dasharray:none;stroke-dashoffset:0;stroke-opacity:1;visibility:visible;display:inline;overflow:visible;enable-background:accumulate" id="path2659" sodipodi:sides="6" sodipodi:cx="465.68033" sodipodi:cy="429.09805" sodipodi:r1="54.39838" sodipodi:r2="27.19919" sodipodi:arg1="1.0240075" sodipodi:arg2="1.5476063" inkscape:flatsided="false" inkscape:rounded="0" inkscape:randomized="0" d="M 493.9646,475.56507 L 466.31102,456.28993 L 439.58085,476.82646 L 442.44682,443.24019 L 411.29657,430.35944 L 441.81613,416.04831 L 437.39606,382.63103 L 465.04963,401.90618 L 491.77981,381.36965 L 488.91384,414.95592 L 520.06408,427.83666 L 489.54453,442.14779 L 493.9646,475.56507 z " transform="translate(-18.182746,11.111678)"/>
    <path sodipodi:type="star" style="opacity:1;color:#000000;fill:#000080;fill-opacity:1;fill-rule:nonzero;stroke:none;stroke-width:0.99699998;stroke-linecap:butt;stroke-linejoin:miter;marker:none;marker-start:none;marker-mid:none;marker-end:none;stroke-miterlimit:4;stroke-dasharray:none;stroke-dashoffset:0;stroke-opacity:1;visibility:visible;display:inline;overflow:visible;enable-background:accumulate" id="path2661" sodipodi:sides="7" sodipodi:cx="562.65497" sodipodi:cy="412.93561" sodipodi:r1="49.29089" sodipodi:r2="24.645447" sodipodi:arg1="0.77090642" sodipodi:arg2="1.2197054" inkscape:flatsided="false" inkscape:rounded="0" inkscape:randomized="0" d="M 598.01031,447.28079 L 571.13109,436.07764 L 557.84651,461.9914 L 549.84658,433.99132 L 521.30358,439.76199 L 538.20705,416.04963 L 515.89909,397.33177 L 544.9773,395.76301 L 545.70273,366.65156 L 565.0592,388.40771 L 588.27175,370.82418 L 583.33066,399.52242 L 611.55081,406.70756 L 586.03291,420.73753 L 598.01031,447.28079 z " transform="translate(3.0304576,22.223356)"/>
    <path sodipodi:type="star" style="opacity:1;color:#000000;fill:#ff6600;fill-opacity:1;fill-rule:nonzero;stroke:none;stroke-width:0.99699998;stroke-linecap:butt;stroke-linejoin:miter;marker:none;marker-start:none;marker-mid:none;marker-end:none;stroke-miterlimit:4;stroke-dasharray:none;stroke-dashoffset:0;stroke-opacity:1;visibility:visible;display:inline;overflow:visible;enable-background:accumulate" id="path2663" sodipodi:sides="8" sodipodi:cx="680.84283" sodipodi:cy="446.27066" sodipodi:r1="43.903885" sodipodi:r2="21.951942" sodipodi:arg1="1.1689257" sodipodi:arg2="1.5616248" inkscape:flatsided="false" inkscape:rounded="0" inkscape:randomized="0" d="M 698.01543,486.67676 L 681.04416,468.22168 L 664.41426,486.98495 L 665.46348,461.93474 L 640.43673,463.44325 L 658.89182,446.47199 L 640.12855,429.84209 L 665.17876,430.89131 L 663.67024,405.86456 L 680.6415,424.31964 L 697.27141,405.55637 L 696.22219,430.60658 L 721.24894,429.09807 L 702.79385,446.06933 L 721.55712,462.69923 L 696.50691,461.65001 L 698.01543,486.67676 z " transform="translate(-11.111678,3.0304576)"/>
    <path sodipodi:type="star" style="opacity:1;color:#000000;fill:#808000;fill-opacity:1;fill-rule:nonzero;stroke:none;stroke-width:0.99699998;stroke-linecap:butt;stroke-linejoin:miter;marker:none;marker-start:none;marker-mid:none;marker-end:none;stroke-miterlimit:4;stroke-dasharray:none;stroke-dashoffset:0;stroke-opacity:1;visibility:visible;display:inline;overflow:visible;enable-background:accumulate" id="path2665" sodipodi:sides="9" sodipodi:cx="103.03556" sodipodi:cy="530.11334" sodipodi:r1="44.043114" sodipodi:r2="22.021559" sodipodi:arg1="0.63891399" sodipodi:arg2="0.98797984" inkscape:flatsided="false" inkscape:rounded="0" inkscape:randomized="0" d="M 138.3909,556.37731 L 115.15573,548.49949 L 113.23717,572.95868 L 100.50176,551.98865 L 83.309993,569.49224 L 87.033386,545.2421 L 62.61263,547.59998 L 81.052602,531.41665 L 60.829605,517.52553 L 85.35789,516.98136 L 78.795215,493.34105 L 97.934756,508.69067 L 108.10315,486.36274 L 112.89835,510.42389 L 135.03991,499.85582 L 123.24703,521.37002 L 147.00147,527.50673 L 124.13854,536.40725 L 138.3909,556.37731 z " transform="translate(3.0304577,56.568543)"/>
    <path sodipodi:type="star" style="opacity:1;color:#000000;fill:#000000;fill-opacity:1;fill-rule:nonzero;stroke:none;stroke-width:0.99699998;stroke-linecap:butt;stroke-linejoin:miter;marker:none;marker-start:none;marker-mid:none;marker-end:none;stroke-miterlimit:4;stroke-dasharray:none;stroke-dashoffset:0;stroke-opacity:1;visibility:visible;display:inline;overflow:visible;enable-background:accumulate" id="path2667" sodipodi:sides="10" sodipodi:cx="192.93913" sodipodi:cy="526.07269" sodipodi:r1="61.15387" sodipodi:r2="30.576937" sodipodi:arg1="0.38970857" sodipodi:arg2="0.70386784" inkscape:flatsided="false" inkscape:rounded="0" inkscape:randomized="0" d="M 249.50767,549.3062 L 216.2493,545.8612 L 225.04773,578.11915 L 200.16606,555.78331 L 188.32339,587.05212 L 181.32238,554.35697 L 153.36211,572.69302 L 166.9159,542.12699 L 133.51791,540.52654 L 162.44942,523.76482 L 136.37059,502.83918 L 169.62897,506.28418 L 160.83053,474.02624 L 185.71221,496.36208 L 197.55487,465.09326 L 204.55589,497.78842 L 232.51615,479.45236 L 218.96236,510.01839 L 252.36036,511.61884 L 223.42885,528.38056 L 249.50767,549.3062 z " transform="translate(6.0609153,-5.0507627)"/>
    <path sodipodi:type="star" style="opacity:1;color:#000000;fill:#ff00ff;fill-opacity:1;fill-rule:nonzero;stroke:none;stroke-width:0.99699998;stroke-linecap:butt;stroke-linejoin:miter;marker:none;marker-start:none;marker-mid:none;marker-end:none;stroke-miterlimit:4;stroke-dasharray:none;stroke-dashoffset:0;stroke-opacity:1;visibility:visible;display:inline;overflow:visible;enable-background:accumulate" id="path2669" sodipodi:sides="11" sodipodi:cx="282.84271" sodipodi:cy="524.05243" sodipodi:r1="37.91774" sodipodi:r2="18.958872" sodipodi:arg1="0.8419416" sodipodi:arg2="1.1275409" inkscape:flatsided="false" inkscape:rounded="0" inkscape:randomized="0" d="M 308.09653,552.3367 L 290.97384,541.17912 L 288.79594,561.49991 L 280.42367,542.85634 L 267.60525,558.77382 L 270.64152,538.56345 L 251.25234,545.02392 L 264.73317,529.66341 L 244.92916,524.61573 L 264.57447,518.98193 L 250.64326,504.02869 L 270.2158,509.91029 L 266.58046,489.79905 L 279.8661,505.32869 L 287.68081,486.44461 L 290.46144,506.69173 L 307.2451,495.03039 L 298.6379,513.56668 L 319.0618,512.83046 L 301.79949,523.77078 L 319.3792,534.19343 L 298.94244,534.0643 L 308.09653,552.3367 z " transform="matrix(1.4884549,0,0,1.4884549,-117.61654,-190.1291)"/>
    <path sodipodi:type="star" style="opacity:1;color:#000000;fill:#00ffff;fill-opacity:1;fill-rule:nonzero;stroke:none;stroke-width:0.99699998;stroke-linecap:butt;stroke-linejoin:miter;marker:none;marker-start:none;marker-mid:none;marker-end:none;stroke-miterlimit:4;stroke-dasharray:none;stroke-dashoffset:0;stroke-opacity:1;visibility:visible;display:inline;overflow:visible;enable-background:accumulate" id="path2671" sodipodi:sides="20" sodipodi:cx="373.75644" sodipodi:cy="521.02191" sodipodi:r1="36.42157" sodipodi:r2="18.210785" sodipodi:arg1="0.98279372" sodipodi:arg2="1.1398734" inkscape:flatsided="false" inkscape:rounded="0" inkscape:randomized="0" d="M 393.95949,551.32649 L 381.36326,537.56788 L 383.60605,556.08636 L 375.87797,539.1087 L 372.28847,557.41389 L 370.18501,538.87906 L 361.11458,555.17911 L 364.84165,536.90143 L 351.17816,549.60079 L 360.37093,533.36941 L 343.45186,541.22496 L 357.21047,528.62873 L 338.69199,530.87153 L 355.66965,523.14344 L 337.36446,519.55394 L 355.8993,517.45048 L 339.59924,508.38005 L 357.87692,512.10712 L 345.17757,498.44363 L 361.40894,507.6364 L 353.55339,490.71733 L 366.14962,504.47595 L 363.90682,485.95746 L 371.63491,502.93513 L 375.22441,484.62994 L 377.32787,503.16477 L 386.3983,486.86472 L 382.67123,505.14239 L 396.33472,492.44304 L 387.14195,508.67441 L 404.06102,500.81886 L 390.30241,513.41509 L 408.82089,511.1723 L 391.84322,518.90038 L 410.14841,522.48988 L 391.61358,524.59334 L 407.91364,533.66377 L 389.63596,529.9367 L 402.33531,543.60019 L 386.10394,534.40742 L 393.95949,551.32649 z " transform="matrix(1.4857574,0,0,1.4857574,-138.62346,-213.1892)"/>
    <path sodipodi:type="star" style="opacity:1;color:#000000;fill:#008000;fill-opacity:1;fill-rule:nonzero;stroke:none;stroke-width:0.99699998;stroke-linecap:butt;stroke-linejoin:miter;marker:none;marker-start:none;marker-mid:none;marker-end:none;stroke-miterlimit:4;stroke-dasharray:none;stroke-dashoffset:0;stroke-opacity:1;visibility:visible;display:inline;overflow:visible;enable-background:accumulate" id="path2673" sodipodi:sides="40" sodipodi:cx="464.67017" sodipodi:cy="530.11334" sodipodi:r1="35.340904" sodipodi:r2="17.670452" sodipodi:arg1="1.0303768" sodipodi:arg2="1.1089166" inkscape:flatsided="false" inkscape:rounded="0" inkscape:randomized="0" d="M 482.85291,560.41792 L 472.54468,545.93222 L 477.88837,562.88923 L 469.97311,546.96931 L 472.59836,564.55348 L 467.27097,547.59135 L 467.11312,565.36971 L 464.50479,547.78302 L 461.56773,565.31781 L 461.74268,547.53961 L 456.09874,564.39906 L 459.05265,546.8671 L 450.8408,562.63608 L 456.50095,545.78206 L 445.92339,560.07228 L 454.1504,544.31121 L 441.46758,556.77079 L 452.05888,542.49075 L 437.5831,552.81291 L 450.27789,540.36552 L 434.36559,548.29609 L 448.85129,537.98786 L 431.89428,543.33155 L 447.8142,535.41629 L 430.23003,538.04153 L 447.19216,532.71415 L 429.4138,532.5563 L 447.00049,529.94796 L 429.4657,527.01091 L 447.2439,527.18585 L 430.38445,521.54191 L 447.91641,524.49583 L 432.14743,516.28398 L 449.00145,521.94412 L 434.71123,511.36656 L 450.4723,519.59357 L 438.01272,506.91076 L 452.29276,517.50205 L 441.9706,503.02628 L 454.41798,515.72107 L 446.48742,499.80877 L 456.79565,514.29446 L 451.45196,497.33746 L 459.36722,513.25737 L 456.74198,495.6732 L 462.06936,512.63534 L 462.22721,494.85697 L 464.83554,512.44366 L 467.7726,494.90888 L 467.59765,512.68708 L 473.24159,495.82763 L 470.28768,513.35958 L 478.49953,497.59061 L 472.83939,514.44462 L 483.41695,500.15441 L 475.18994,515.91548 L 487.87275,503.45589 L 477.28146,517.73593 L 491.75723,507.41378 L 479.06244,519.86116 L 494.97474,511.9306 L 480.48904,522.23883 L 497.44605,516.89514 L 481.52613,524.8104 L 499.11031,522.18515 L 482.14817,527.51254 L 499.92653,527.67039 L 482.33984,530.27872 L 499.87463,533.21577 L 482.09643,533.04083 L 498.95588,538.68477 L 481.42392,535.73086 L 497.1929,543.94271 L 480.33888,538.28256 L 494.6291,548.86012 L 478.86803,540.63311 L 491.32761,553.31593 L 477.04758,542.72463 L 487.36973,557.20041 L 474.92235,544.50562 L 482.85291,560.41792 z " transform="translate(56.568543,4.0406102)"/>
    <path sodipodi:type="star" style="opacity:1;color:#000000;fill:#d35f5f;fill-opacity:1;fill-rule:nonzero;stroke:none;stroke-width:0.99699998;stroke-linecap:butt;stroke-linejoin:miter;marker:none;marker-start:none;marker-mid:none;marker-end:none;stroke-miterlimit:4;stroke-dasharray:none;stroke-dashoffset:0;stroke-opacity:1;visibility:visible;display:inline;overflow:visible;enable-background:accumulate" id="path2675" sodipodi:sides="80" sodipodi:cx="556.59406" sodipodi:cy="507.88995" sodipodi:r1="36.603222" sodipodi:r2="18.301613" sodipodi:arg1="0.68767126" sodipodi:arg2="0.72694117" inkscape:flatsided="false" inkscape:rounded="0" inkscape:randomized="0" d="M 584.87833,531.12346 L 570.26922,520.05297 L 582.96825,533.271 L 569.27276,521.08842 L 580.89558,535.26205 L 568.19814,522.04249 L 578.67307,537.08435 L 567.05197,522.90931 L 576.31445,538.72665 L 565.84133,523.68353 L 573.83424,540.17884 L 564.57367,524.36037 L 571.24773,541.43195 L 563.25682,524.93567 L 568.57089,542.47827 L 561.89889,525.40588 L 565.8202,543.31133 L 560.50825,525.7681 L 563.01263,543.92602 L 559.09348,526.02009 L 560.16548,544.31852 L 557.6633,526.16031 L 557.29632,544.48644 L 556.22653,526.18788 L 554.42283,544.42872 L 554.79203,526.10263 L 551.56272,544.14573 L 553.36863,525.9051 L 548.73364,543.63922 L 551.96512,525.59651 L 545.95301,542.91229 L 550.59015,525.17874 L 543.238,541.96944 L 549.2522,524.65438 L 540.60532,540.81648 L 547.95951,524.02667 L 538.07122,539.46052 L 546.72005,523.29947 L 535.65133,537.90991 L 545.54147,522.47726 L 533.36055,536.17422 L 544.43104,521.56512 L 531.21301,534.26415 L 543.39559,520.56866 L 529.22196,532.19148 L 542.44152,519.49404 L 527.39966,529.96897 L 541.5747,518.34787 L 525.75736,527.61034 L 540.80048,517.13723 L 524.30517,525.13013 L 540.12363,515.86957 L 523.05206,522.54363 L 539.54833,514.55272 L 522.00574,519.86678 L 539.07813,513.19479 L 521.17268,517.1161 L 538.71591,511.80415 L 520.55799,514.30853 L 538.46392,510.38938 L 520.16548,511.46138 L 538.3237,508.9592 L 519.99757,508.59222 L 538.29613,507.52243 L 520.05529,505.71873 L 538.38137,506.08792 L 520.33828,502.85862 L 538.5789,504.66453 L 520.84479,500.02954 L 538.8875,503.26102 L 521.57172,497.24891 L 539.30527,501.88605 L 522.51457,494.53389 L 539.82962,500.54809 L 523.66753,491.90122 L 540.45734,499.25541 L 525.02349,489.36712 L 541.18454,498.01595 L 526.5741,486.94722 L 542.00675,496.83737 L 528.30978,484.65645 L 542.91889,495.72694 L 530.21986,482.50891 L 543.91535,494.69149 L 532.29253,480.51785 L 544.98997,493.73742 L 534.51504,478.69556 L 546.13614,492.8706 L 536.87366,477.05325 L 547.34678,492.09638 L 539.35388,475.60107 L 548.61444,491.41953 L 541.94038,474.34796 L 549.93129,490.84423 L 544.61722,473.30164 L 551.28922,490.37402 L 547.36791,472.46857 L 552.67986,490.01181 L 550.17548,471.85389 L 554.09463,489.75982 L 553.02263,471.46138 L 555.52481,489.6196 L 555.89179,471.29347 L 556.96158,489.59203 L 558.76528,471.35118 L 558.39608,489.67727 L 561.62539,471.63417 L 559.81948,489.8748 L 564.45447,472.14069 L 561.22299,490.1834 L 567.2351,472.86762 L 562.59796,490.60117 L 569.95011,473.81047 L 563.93591,491.12552 L 572.58279,474.96343 L 565.2286,491.75324 L 575.11689,476.31939 L 566.46806,492.48044 L 577.53678,477.86999 L 567.64664,493.30265 L 579.82756,479.60568 L 568.75707,494.21479 L 581.9751,481.51575 L 569.79252,495.21125 L 583.96615,483.58843 L 570.74659,496.28587 L 585.78845,485.81093 L 571.61341,497.43204 L 587.43075,488.16956 L 572.38763,498.64268 L 588.88294,490.64977 L 573.06448,499.91034 L 590.13605,493.23628 L 573.63978,501.22719 L 591.18237,495.91312 L 574.10998,502.58512 L 592.01544,498.66381 L 574.4722,503.97576 L 592.63012,501.47138 L 574.72419,505.39053 L 593.02263,504.31853 L 574.86441,506.82071 L 593.19054,507.18769 L 574.89198,508.25748 L 593.13282,510.06118 L 574.80674,509.69198 L 592.84983,512.92129 L 574.60921,511.11538 L 592.34332,515.75037 L 574.30061,512.51889 L 591.61639,518.53099 L 573.88284,513.89386 L 590.67354,521.24601 L 573.35849,515.23181 L 589.52058,523.87869 L 572.73077,516.5245 L 588.16462,526.41278 L 572.00357,517.76396 L 586.61401,528.83268 L 571.18136,518.94254 L 584.87833,531.12346 z " transform="matrix(1.7728685,0,0,1.7728685,-351.38213,-330.91286)"/>
  </g>
</svg>