<?xml version="1.0" standalone="no"?>
<!DOCTYPE svg PUBLIC "-//W3C//DTD SVG 20010904//EN"
 "http://www.w3.org/TR/2001/REC-SVG-20010904/DTD/svg10.dtd">
<svg version="1.0" xmlns="http://www.w3.org/2000/svg"
 width="1280.000000pt" height="936.000000pt" viewBox="0 0 1280.000000 936.000000"
 preserveAspectRatio="xMidYMid meet">
<g transform="translate(0.000000,936.000000) scale(0.100000,-0.100000)"
fill="#000000" stroke="none">
<path d="M5570 7875 c-361 -61 -701 -307 -809 -583 -49 -123 -64 -344 -37
-512 37 -228 138 -417 309 -576 88 -82 190 -144 367 -224 151 -68 173 -81 197
-116 29 -45 5 -69 -117 -118 -58 -23 -127 -55 -155 -71 -170 -100 -233 -286
-157 -458 11 -24 67 -114 125 -199 172 -253 176 -287 116 -868 -24 -231 -22
-460 7 -715 22 -196 20 -390 -5 -555 -11 -74 -28 -214 -36 -310 -46 -532 -58
-607 -142 -883 -66 -216 -68 -225 -67 -327 1 -71 6 -119 18 -149 9 -24 16 -68
16 -98 0 -61 15 -95 60 -138 31 -30 33 -30 148 -31 64 -1 174 -5 243 -9 141
-9 217 3 250 39 22 23 49 80 49 103 0 7 -40 55 -88 106 -188 196 -262 340
-262 513 0 68 42 390 75 574 27 150 71 268 169 452 52 97 131 230 176 297 89
133 209 268 247 277 48 12 132 -103 166 -226 26 -94 29 -163 13 -342 -8 -95
-17 -243 -20 -328 -5 -126 -11 -177 -35 -271 -24 -92 -32 -155 -42 -317 l-12
-202 30 -62 c17 -35 34 -71 37 -81 8 -26 81 -55 165 -67 58 -8 86 -7 139 6 57
13 85 13 192 3 214 -20 366 3 463 69 68 48 84 129 41 213 -12 23 -93 69 -123
69 -6 0 -73 23 -148 50 -210 78 -266 129 -295 276 -7 36 -12 159 -12 314 l-1
255 42 170 c24 94 49 215 57 270 19 131 46 393 46 451 0 34 6 51 25 69 32 33
55 31 90 -5 27 -28 28 -32 22 -97 -3 -37 -17 -101 -31 -140 -30 -83 -31 -96
-13 -112 21 -17 43 6 73 74 l26 60 20 -25 c16 -20 19 -35 15 -76 -10 -97 28
-99 75 -3 38 76 52 173 38 268 -18 122 -42 160 -205 337 -81 87 -157 180 -170
205 -36 70 -53 174 -69 421 -13 195 -22 259 -66 477 -42 209 -50 266 -48 338
l3 86 80 34 c44 19 134 54 200 78 172 61 190 71 229 130 35 53 41 82 38 181
-2 44 -8 59 -41 99 -22 26 -54 76 -71 111 -18 34 -46 75 -62 89 -25 22 -29 32
-26 68 3 37 6 42 33 47 17 4 45 14 62 24 31 15 35 15 58 0 14 -9 70 -67 125
-129 187 -211 300 -273 478 -263 94 6 151 27 225 86 249 199 302 693 116 1065
-77 153 -199 282 -326 344 -76 37 -81 38 -188 38 -101 0 -115 -2 -169 -29
-135 -66 -226 -199 -307 -448 -48 -150 -69 -183 -111 -174 -19 4 -79 -11 -182
-43 -170 -54 -259 -91 -293 -123 l-23 -21 0 24 c1 13 7 51 15 84 22 93 29 248
16 365 -45 393 -213 644 -512 765 -151 60 -371 81 -549 50z m998 -1418 c-14
-47 0 -79 67 -154 49 -56 87 -73 163 -73 23 0 42 -5 42 -10 0 -6 -14 -38 -30
-71 -17 -33 -42 -107 -55 -164 -28 -115 -72 -235 -87 -235 -5 0 -33 20 -62 45
-65 55 -136 87 -240 109 -104 21 -136 45 -136 100 1 43 40 106 151 243 52 65
115 151 139 191 44 75 68 85 48 19z"/>
</g>
</svg>
